<svg width="50" height="50" viewBox="0 0 50 50" fill="none" xmlns="http://www.w3.org/2000/svg">
<g clip-path="url(#clip0_39_1293)">
<path d="M25 14.162C28.2044 14.162 28.5835 14.1744 29.8492 14.232C31.0191 14.2854 31.6545 14.4807 32.0775 14.645C32.6377 14.8627 33.0373 15.1228 33.4574 15.5424C33.8776 15.9626 34.1377 16.3622 34.3549 16.9224C34.5192 17.3454 34.7145 17.9808 34.7679 19.1507C34.8255 20.4159 34.8379 20.7955 34.8379 23.9999C34.8379 27.2042 34.8255 27.5834 34.7679 28.849C34.7145 30.0189 34.5192 30.6544 34.3549 31.0774C34.1372 31.6375 33.8771 32.0372 33.4574 32.4573C33.0373 32.8774 32.6377 33.1375 32.0775 33.3547C31.6545 33.5191 31.0191 33.7144 29.8492 33.7677C28.584 33.8254 28.2044 33.8378 25 33.8378C21.7957 33.8378 21.416 33.8254 20.1508 33.7677C18.9809 33.7144 18.3455 33.5191 17.9225 33.3547C17.3623 33.1371 16.9627 32.877 16.5426 32.4573C16.1224 32.0372 15.8623 31.6375 15.6451 31.0774C15.4808 30.6544 15.2855 30.0189 15.2321 28.849C15.1745 27.5839 15.1621 27.2042 15.1621 23.9999C15.1621 20.7955 15.1745 20.4163 15.2321 19.1507C15.2855 17.9808 15.4808 17.3454 15.6451 16.9224C15.8628 16.3622 16.1229 15.9626 16.5426 15.5424C16.9622 15.1223 17.3623 14.8622 17.9225 14.645C18.3455 14.4807 18.9809 14.2854 20.1508 14.232C21.416 14.1744 21.7957 14.162 25 14.162ZM25 11.9999C21.7409 11.9999 21.3322 12.0137 20.0522 12.0723C18.7752 12.1304 17.9025 12.3333 17.1394 12.6301C16.3501 12.9368 15.6809 13.347 15.014 14.0143C14.3466 14.6817 13.9365 15.3505 13.6297 16.1398C13.3334 16.9029 13.1305 17.775 13.0724 19.0521C13.0138 20.332 13 20.7407 13 23.9999C13 27.259 13.0138 27.6677 13.0724 28.9476C13.1305 30.2247 13.3334 31.0974 13.6302 31.8605C13.937 32.6498 14.3471 33.319 15.0144 33.9859C15.6818 34.6533 16.3506 35.0634 17.1399 35.3701C17.903 35.6669 18.7756 35.8698 20.0527 35.9279C21.3326 35.9865 21.7413 36.0003 25.0005 36.0003C28.2596 36.0003 28.6683 35.9865 29.9482 35.9279C31.2253 35.8698 32.098 35.6669 32.8611 35.3701C33.6504 35.0634 34.3196 34.6533 34.9865 33.9859C35.6539 33.3185 36.064 32.6498 36.3708 31.8605C36.6675 31.0974 36.8704 30.2247 36.9286 28.9476C36.9871 27.6677 37.001 27.259 37.001 23.9999C37.001 20.7407 36.9871 20.332 36.9286 19.0521C36.8704 17.775 36.6675 16.9024 36.3708 16.1393C36.064 15.35 35.6539 14.6807 34.9865 14.0138C34.3192 13.3465 33.6504 12.9364 32.8611 12.6296C32.098 12.3328 31.2253 12.1299 29.9482 12.0718C28.6683 12.0132 28.2596 11.9994 25.0005 11.9994L25 11.9999Z" fill="#ADADAD"/>
<path d="M24.9998 17.8381C21.5964 17.8381 18.8379 20.597 18.8379 24C18.8379 27.403 21.5969 30.162 24.9998 30.162C28.4028 30.162 31.1618 27.403 31.1618 24C31.1618 20.597 28.4028 17.8381 24.9998 17.8381ZM24.9998 28.0003C22.7906 28.0003 21 26.2093 21 24.0005C21 21.7917 22.791 20.0007 24.9998 20.0007C27.2086 20.0007 28.9997 21.7917 28.9997 24.0005C28.9997 26.2093 27.2086 28.0003 24.9998 28.0003Z" fill="#ADADAD"/>
<path d="M31.4058 19.0341C32.2011 19.0341 32.8458 18.3894 32.8458 17.5942C32.8458 16.7989 32.2011 16.1542 31.4058 16.1542C30.6105 16.1542 29.9658 16.7989 29.9658 17.5942C29.9658 18.3894 30.6105 19.0341 31.4058 19.0341Z" fill="#ADADAD"/>
</g>
<circle cx="25" cy="25" r="24.5" stroke="#EEEEEE"/>
<defs>
<clipPath id="clip0_39_1293">
<rect width="24" height="24" fill="white" transform="translate(13 12)"/>
</clipPath>
</defs>
</svg>
