<svg width="50" height="50" viewBox="0 0 50 50" fill="none" xmlns="http://www.w3.org/2000/svg">
<circle cx="25" cy="25" r="24.5" stroke="#EEEEEE"/>
<g clip-path="url(#clip0_39_1300)">
<path d="M20.862 36C30.296 36 35.456 28.3063 35.456 21.6344C35.456 21.4159 35.451 21.1983 35.441 20.9818C36.442 20.2691 37.313 19.3803 38 18.3674C37.081 18.769 36.092 19.0397 35.054 19.1617C36.113 18.5367 36.926 17.5474 37.309 16.3691C36.318 16.9479 35.22 17.3682 34.052 17.5946C33.117 16.6142 31.784 16 30.309 16C27.476 16 25.179 18.261 25.179 21.0487C25.179 21.4454 25.224 21.8303 25.312 22.1994C21.049 21.9888 17.269 19.9797 14.74 16.9243C14.299 17.6704 14.045 18.5377 14.045 19.462C14.045 21.2141 14.951 22.7595 16.327 23.6641C15.486 23.6385 14.695 23.4112 14.004 23.0322C14.003 23.0529 14.003 23.0745 14.003 23.0962C14.003 25.5413 15.771 27.5828 18.118 28.0455C17.687 28.1606 17.234 28.2227 16.766 28.2227C16.436 28.2227 16.114 28.1902 15.802 28.1311C16.455 30.1372 18.348 31.597 20.594 31.6374C18.838 32.9918 16.627 33.799 14.224 33.799C13.81 33.799 13.402 33.7754 13 33.7291C15.27 35.1613 17.965 35.997 20.862 35.997" fill="#ADADAD"/>
</g>
<defs>
<clipPath id="clip0_39_1300">
<rect width="25" height="20" fill="white" transform="translate(13 16)"/>
</clipPath>
</defs>
</svg>
